{"title":"Saahasam 2016 Movies DVDScr XviD Clean Audio New +Sample ~ ☻rDX☻","uid":13454769,"size":744331119,"categoryP":"video","categoryS":"movies","magnet":"?xt=urn:btih:30b562a336285f466809183a57171e75971e0afd&amp;dn=Saahasam+2016+Movies+DVDScr+XviD+Clean+Audio+New+%2BSample+%7E+%E2%98%BBrDX%E2%98%BB&amp;tr=udp%3A%2F%2Ftracker.leechers-paradise.org%3A6969&amp;tr=udp%3A%2F%2Fzer0day.ch%3A1337&amp;tr=udp%3A%2F%2Fopen.demonii.com%3A1337&amp;tr=udp%3A%2F%2Ftracker.coppersurfer.tk%3A6969&amp;tr=udp%3A%2F%2Fexodus.desync.com%3A6969","seeders":1,"leechers":0,"uploader":"basicssom","files":2,"time":1454835747,"description":"----------------------------------------------------------------\r\nSaahasam 2016 Tamil Movies DVDScr XviD AAC Clean Audio New Source with Sample ~ ☻rDX☻\r\n\r\nSCREEN SHOTS &amp; POSTER:\r\n  \nhttp://mobileshosting.com/2016/2/Saahasam/11.html  \nhttp://mobileshosting.com/2016/2/Saahasam/1.html  \nhttp://mobileshosting.com/2016/2/Saahasam/2.html  \nhttp://mobileshosting.com/2016/2/Saahasam/3.html  \nhttp://mobileshosting.com/2016/2/Saahasam/4.html  \nhttp://mobileshosting.com/2016/2/Saahasam/5.html  \nhttp://mobileshosting.com/2016/2/Saahasam/6.html  \nhttp://mobileshosting.com/2016/2/Saahasam/7.html  \nhttp://mobileshosting.com/2016/2/Saahasam/8.html  \nhttp://mobileshosting.com/2016/2/Saahasam/9.html  \nhttp://mobileshosting.com/2016/2/Saahasam/10.html\r\n\r\nFormat                                   : Matroska\r\nFormat version                           : Version 4 / Version 2\r\nFile size                                : 706 MiB\r\nDuration                                 : 2h 9mn\r\nOverall bit rate                         : 761 Kbps\r\nMovie name                               : Saahasam 2016 Tamil Movies DVDScr XviD AAC Clean Audio New Source ☻rDX☻\r\n\r\nVideo\r\nID                                       : 1\r\nFormat                                   : AVC\r\nFormat/Info                              : Advanced Video Codec\r\nFormat profile                           :   \r\nFormat settings, CABAC                   : Yes\r\nFormat settings, ReFrames                : 4 frames\r\nCodec ID                                 : V_MPEG4/ISO/AVC\r\nDuration                                 : 2h 9mn\r\nBit rate                                 : 663 Kbps\r\nWidth                                    : 608 pixels\r\nHeight                                   : 256 pixels\r\nDisplay aspect ratio                     : 2.40:1\r\nFrame rate mode                          : Constant\r\nFrame rate                               : 25.000 fps\r\nColor space                              : YUV\r\nChroma subsampling                       : 4:2:0\r\nBit depth                                : 8 bits\r\nScan type                                : Progressive\r\nBits/(Pixel*Frame)                       : 0.170\r\nStream size                              : 603 MiB (85%)\r\nTitle                                    : ☻rDX☻\r\nWriting library                          : XviD\r\nLanguage                                 : Tamil\r\nDefault                                  : Yes\r\nForced                                   : Yes\r\n\r\nAudio\r\nID                                       : 2\r\nFormat                                   : MPEG Audio\r\nFormat version                           : Version 1\r\nFormat profile                           : Layer 3\r\nMode                                     : Joint stereo\r\nMode extension                           : MS Stereo\r\nCodec ID                                 : A_MPEG/L3\r\nCodec ID/Hint                            : MP3\r\nDuration                                 : 2h 9mn\r\nBit rate mode                            : Constant\r\nBit rate                                 : 96.0 Kbps\r\nChannel(s)                               : 2 channels\r\nSampling rate                            : 48.0 KHz\r\nCompression mode                         : Lossy\r\nStream size                              : 89.0 MiB (13%)\r\nTitle                                    : ☻rDX☻\r\nLanguage                                 : Tamil\r\nDefault                                  : Yes\r\nForced                                   : Yes\r\n\r\nIMDB                                     \r\nna","torrent":{"xt":"urn:btih:30b562a336285f466809183a57171e75971e0afd","amp;dn":"Saahasam+2016+Movies+DVDScr+XviD+Clean+Audio+New+%2BSample+%7E+%E2%98%BBrDX%E2%98%BB","amp;tr":["udp%3A%2F%2Ftracker.leechers-paradise.org%3A6969","udp%3A%2F%2Fzer0day.ch%3A1337","udp%3A%2F%2Fopen.demonii.com%3A1337","udp%3A%2F%2Ftracker.coppersurfer.tk%3A6969","udp%3A%2F%2Fexodus.desync.com%3A6969"],"infoHash":"30b562a336285f466809183a57171e75971e0afd","infoHashBuffer":{"type":"Buffer","data":[48,181,98,163,54,40,95,70,104,9,24,58,87,23,30,117,151,30,10,253]},"announce":[],"urlList":[]}}